<svg xmlns="http://www.w3.org/2000/svg" xmlns:xlink="http://www.w3.org/1999/xlink" viewBox="0 0 267.62 12.91"><defs><style>.cls-1{fill:url(#Dégradé_sans_nom_52);}</style><linearGradient id="Dégradé_sans_nom_52" y1="6.46" x2="267.62" y2="6.46" gradientUnits="userSpaceOnUse"><stop offset="0" stop-color="#006838"/><stop offset="0" stop-color="#8dc63f"/><stop offset="1" stop-color="#006838"/></linearGradient></defs><title>Fichier 19</title><g id="Calque_2" data-name="Calque 2"><g id="Layer_1" data-name="Layer 1"><path class="cls-1" d="M246.19,1.55c-5.85-.34-11.7-.59-17.55-.88-1.93-.1-3.87-.1-5.8-.15L210.27.2c-2.33-.06-4.67-.13-7-.18l-2,0-4.56,0L175.93,0c-1.65,0-3.29,0-4.94.06L158.78.27c-4.6.06-9.19.08-13.79.2L122.67,1c-4.31.11-8.61.17-12.92.34l-22.25.88c-4.05.16-8.11.29-12.16.52L52.34,4c-4.1.23-8.2.4-12.29.75l-22.91,2-5,.42c-3.3.28-6.58.72-9.87,1.09l-.62.08a2.33,2.33,0,0,0-1,3.89,2.23,2.23,0,0,0,1.65.68c4-.45,7.93-.92,11.91-1.26l11.06-.94,12.06-1c1.62-.14,3.24-.32,4.87-.41L61,8.24l11.73-.65c1.61-.09,3.23-.2,4.85-.27Q86.92,7,96.24,6.61l11.3-.43c1.27,0,2.53-.11,3.8-.14l20.13-.46,11.24-.26c1.33,0,2.67-.08,4-.09L167.47,5c4.32,0,8.63-.09,12.95-.08l22,.05c1.45,0,2.9.06,4.35.11L219,5.46l9.13.27c2.16.06,4.31.22,6.47.34q9.52.52,19,1.09c1.61.1,3.22.22,4.83.34s3.46.25,5.18.44l.8.15a2.62,2.62,0,0,0,1.94-.25,2.52,2.52,0,0,0-.6-4.6,21.37,21.37,0,0,0-3.55-.57l-2.45-.25c-1.57-.16-3.15-.24-4.72-.36C252.1,1.85,249.14,1.72,246.19,1.55Z"/></g></g></svg>