<svg xmlns="http://www.w3.org/2000/svg" viewBox="0 0 235.72 14.92"><defs><style>.cls-1{fill:#0670f3;}</style></defs><title>Fichier 9</title><g id="Calque_2" data-name="Calque 2"><g id="Layer_1" data-name="Layer 1"><path class="cls-1" d="M235.71,2.2c-1.16-.12-2.31-.09-3.48-.11s-2.31-.07-3.46-.17c-2.56-.24-5.13-.48-7.69-.7C216.15.78,211.2.45,206.25.26,201.71.1,197.17,0,192.63,0L189.1,0c-4.5.05-9,.11-13.51.23C165.06.54,154.53.84,144,1.33c-10.28.48-20.56,1-30.83,1.63-5,.31-10.1.6-15.15.94-5.46.37-10.92.69-16.37,1.11L47.9,7.61c-9.77.76-19.5,1.9-29.19,3.33-6.26.93-12.5,2-18.71,3.19,0,0,0,0,0,0q10.72.68,21.45.76c4.68,0,9.36-.05,14-.24q4.53-.19,9.05-.5c1.85-.13,3.7-.33,5.55-.5l14.85-1.41c5.66-.53,11.32-1.11,17-1.58L99.46,9.19c5.25-.44,10.51-.8,15.76-1.2s10.26-.68,15.39-1,10.34-.58,15.52-.86,10.54-.43,15.8-.63c9.62-.37,19.25-.49,28.87-.55,5.35,0,10.71-.23,16.06-.41s10.55-.42,15.82-.74c2.14-.13,4.3-.22,6.43-.44a29.08,29.08,0,0,0,3.09-.44c.9-.19,1.79-.46,2.7-.62h0l.82-.09A0,0,0,0,0,235.71,2.2Z"/></g></g></svg>