<svg xmlns="http://www.w3.org/2000/svg" viewBox="0 0 244.3 9.39"><defs><style>.cls-1{fill:#6e4ccc;}</style></defs><title>Fichier 5</title><g id="Calque_2" data-name="Calque 2"><g id="Layer_1" data-name="Layer 1"><path class="cls-1" d="M4.09,7.09s0,0,0,0q11,1.15,22,1.75c4.44.24,8.87.43,13.32.5,6.4.11,12.79,0,19.19-.15,5.52-.11,11-.18,16.56-.27q6.63-.1,13.27-.24c5.1-.1,10.19-.16,15.29-.31q17.57-.51,35.15-1c4.66-.12,9.31-.18,14-.23L163,7.07c1.53,0,3.06,0,4.59,0l11.2.16c1.62,0,3.25,0,4.87.11,5.39.27,10.79.49,16.19.82,5.9.36,11.81.62,17.71.8,5.14.16,10.29.28,15.43.24a98.22,98.22,0,0,0,11.34-.6s0,0,0,0c-2.48-.37-5-.77-7.44-1.1l.22,0c-5.46-.78-10.95-1.4-16.43-1.93q-6.4-.62-12.81-1.14l4.77-.22c2.25-.11,4.5-.24,6.76-.35,2.87-.13,5.75-.33,8.62-.47,5.21-.26,10.41-.63,15.6-1.13a0,0,0,0,0,0,0c-5.26-.53-10.56-.58-15.84-.68-5.6-.11-11.21-.12-16.82-.08q-8,0-16,.28c-4.77.14-9.54.27-14.32.36L169,2.43c-1.88,0-3.77.1-5.65.11l-18.95.08c-1.6,0-3.2,0-4.8,0l-8.35-.09-11.15-.11c-1.35,0-2.7,0-4-.06L96.17,1.89c-5.27-.13-10.53-.36-15.79-.54C70.51,1,60.63.62,50.75.33,45.53.17,40.31.06,35.08,0L31,0q-3.58,0-7.16,0c-1.83,0-3.65.09-5.48.08C12.27.13,6.14.28,0,.31c0,0,0,0,0,0,1.61.27,3.22.53,4.84.74l4.93.63q4.56.56,9.12,1.05c.56.06,1.13.09,1.69.14l4.86.36q5.36.38,10.72.65c2,.1,4,.17,6,.22-9.87.35-19.73,1.06-29.55,2.06C9.8,6.48,6.95,6.77,4.09,7.09Z"/></g></g></svg>