<svg xmlns="http://www.w3.org/2000/svg" viewBox="0 0 230.49 5.6"><title>Fichier 1</title><g id="Calque_2" data-name="Calque 2"><g id="OBJECTS"><path d="M75.06,5.4a61,61,0,0,0,8.6,0c5.27-.51,11.17-.58,16.85-.7,5.06-.1,10.09-.58,15.35.13a31,31,0,0,0,7.53-.48,25.4,25.4,0,0,1,9-.45,20,20,0,0,0,3.68-.09c3.89-.34,8.08-.55,11.52-1.11,6-1,10.74-.74,14.4.52,6.34-.12,12-.42,17.62-.28,6.15.15,12.16.72,18.26,1.08a40.63,40.63,0,0,0,4.08,0A263.24,263.24,0,0,0,230.49.92C222.77.71,216.28.33,209.86.41,199.21.53,188.6.28,178,.36c-7.93.05-15.9-1-23.83.21-1.16.17-3.2-.18-4.81-.15-3.08.05-6.69-.28-8.51.88a15,15,0,0,1-4.13.23c-3.91-1.19-8.89-.84-13.5-.77-6.71.11-13.36.44-20.06.58-4,.08-8.12-.06-12.17,0-12.17.08-24.46.54-36.47.2-10.83-.3-21.3.06-31.92.21-7,.1-13.9.32-22.55.52C3.09,3,4.68,3.81,6.9,4c5.42.45,11.12.84,16.73.86,6.83,0,13.71-.14,20.28.44,5.16.46,9.59.52,12.5-.74C63,4.87,69,5.21,75.06,5.4Zm83.6-3.55c3.25-1.7,4.71-1.78,11.26-.3Z"/></g></g></svg>